Coordinates
version=1
nRows=17
nColumns=36
inDegrees=yes

Units are S.I. units (second, meters, Newtons, ...)
If the header above contains a line with 'inDegrees', this indicates whether rotational values are in degrees (yes) or radians (no).

endheader
time	pelvis_tilt	pelvis_list	pelvis_rotation	pelvis_tx	pelvis_ty	pelvis_tz	hip_flexion_r	hip_adduction_r	hip_rotation_r	knee_angle_r	knee_angle_r_beta	ankle_angle_r	subtalar_angle_r	mtp_angle_r	hip_flexion_l	hip_adduction_l	hip_rotation_l	knee_angle_l	knee_angle_l_beta	ankle_angle_l	subtalar_angle_l	mtp_angle_l	lumbar_extension	lumbar_bending	lumbar_rotation	arm_flex_r	arm_add_r	arm_rot_r	elbow_flex_r	pro_sup_r	arm_flex_l	arm_add_l	arm_rot_l	elbow_flex_l	pro_sup_l
      1.83000000	    -25.23155104	      1.44777261	     -0.20466426	     -0.22210129	      0.66910883	     -0.57080090	     79.32330769	      1.00419069	     11.79582794	     99.59178640	      1.73820458	     29.80603295	    -22.37620902	     -7.49996923	     85.82676863	     -3.60115520	      4.25574509	     97.91530253	      1.70894442	     25.40670690	    -11.60931352	     -7.49996923	    -16.95456710	     -4.51577894	     -6.65034916	    112.85150669	     -5.20830878	     14.10710129	    110.31231852	    112.00217182	    126.99227208	      0.36021867	     30.13686727	     90.68962587	    108.50539991
      1.84000000	    -24.98686962	      1.28228304	     -0.15916921	     -0.21725286	      0.67994726	     -0.57032307	     77.70970784	      1.07480916	     11.46270044	     97.92162079	      1.70905469	     28.90002939	    -22.93315379	     -7.49996965	     84.34101188	     -3.66881382	      4.29128424	     96.46889641	      1.68369987	     24.29303961	    -11.67830805	     -7.49996965	    -15.82421336	     -4.53883778	     -6.82499422	    115.59601387	     -6.55949680	     15.11294339	    109.46016797	    111.92340849	    130.66626780	     -0.59543195	     32.09221758	     89.39247732	    108.49365397
      1.85000000	    -24.95667572	      1.19039334	     -0.12245738	     -0.21233464	      0.69087387	     -0.57010592	     76.32247509	      1.07677955	     11.27043214	     96.18187216	      1.67869035	     27.84736299	    -23.26914199	     -7.49996997	     82.99756636	     -3.64945022	      4.24686554	     94.87990701	      1.65596677	     23.16229938	    -11.73316937	     -7.49996997	    -14.49243412	     -4.56184529	     -6.89638630	    118.41506836	     -7.89580762	     16.15389183	    108.33760659	    111.83546967	    134.24456557	     -1.50395473	     34.05624577	     88.24630551	    108.49909784
      1.86000000	    -24.82002273	      1.11700158	     -0.15097027	     -0.20725071	      0.70250987	     -0.56979101	     74.76706729	      1.08734102	     11.11527494	     94.29351593	      1.64573232	     26.50211836	    -23.66601837	     -7.49997040	     81.38868658	     -3.61249139	      4.24442690	     93.10775424	      1.62503687	     21.96543123	    -12.07324088	     -7.49997040	    -13.24863587	     -4.58595024	     -6.98431893	    121.05160920	     -9.03352971	     17.48710593	    106.96202753	    111.56788725	    137.78624109	     -2.53682050	     36.46970060	     86.89696377	    108.39793775
      1.87000000	    -24.68975911	      1.07982733	     -0.23060300	     -0.20214602	      0.71442234	     -0.56946405	     73.20222897	      1.07393500	     11.06288807	     92.30983860	      1.61111062	     25.03774714	    -23.95161768	     -7.49997084	     79.71777623	     -3.63355298	      4.20184979	     91.22082104	      1.59210367	     20.68945941	    -12.43676713	     -7.49997084	    -11.98156484	     -4.64941327	     -6.93934872	    123.67163400	    -10.16409801	     19.01462429	    105.28266880	    111.27934503	    141.22746382	     -3.41921508	     39.02391837	     85.33702442	    108.27717764
      1.88000000	    -24.59272988	      1.05248613	     -0.36527572	     -0.19698008	      0.72674348	     -0.56889706	     71.52455802	      1.22666938	     11.13664977	     90.05142613	      1.57169388	     22.61392160	    -25.50029447	     -7.49997256	     78.00209368	     -3.69794619	      4.10060149	     89.15194650	      1.55599500	     18.78484486	    -13.83305675	     -7.49997256	    -10.69015315	     -4.79415986	     -7.03836873	    126.02717927	    -11.04776303	     20.43170779	    103.55896486	    110.43044030	    144.71744830	     -4.21168692	     42.03412917	     83.51541953	    107.84570087
      1.89000000	    -24.42716100	      0.96073934	     -0.61814956	     -0.19157960	      0.73944216	     -0.56804643	     69.62986949	      1.52626293	     11.23095977	     87.63015088	      1.52943466	     21.22484809	    -25.90773737	     -7.49997454	     76.13942220	     -3.93184038	      4.09298054	     87.01620735	      1.51871932	     17.50637901	    -14.16912534	     -7.49997454	     -9.42813902	     -4.79410176	     -6.67305870	    128.59984943	    -12.04539856	     22.43971197	    101.41425513	    109.52437996	    147.85622231	     -4.84088658	     44.75945499	     81.41355843	    107.36902457
      1.90000000	    -24.23464455	      0.83785866	     -0.91516395	     -0.18594897	      0.75252851	     -0.56728714	     67.58759981	      1.79086356	     11.24735097	     84.98799562	      1.48332035	     20.24882134	    -25.92931483	     -7.49997517	     74.18866488	     -4.18402888	      4.16039150	     84.81391120	      1.48028200	     16.40927985	    -14.13449908	     -7.49997517	     -8.15611224	     -4.70845356	     -6.10148690	    131.14510630	    -12.99615947	     24.45834227	     99.00746250	    109.07820596	    150.59825719	     -5.30430695	     47.07820047	     79.08645882	    107.06477881
      1.91000000	    -24.06311160	      0.69063421	     -1.24788697	     -0.18016113	      0.76609207	     -0.56653768	     65.46478144	      2.07127806	     11.20996111	     82.08497598	      1.43265310	     18.40552157	    -26.84219031	     -7.49997655	     72.19769075	     -4.45979430	      4.20518926	     82.45488149	      1.43910917	     14.72453364	    -14.65332067	     -7.49997655	     -6.77373016	     -4.66643496	     -5.35976453	    133.30272691	    -13.98014910	     26.03064257	     96.53853744	    108.26765124	    152.75197720	     -5.39990046	     48.89363246	     76.46528134	    106.44997482
      1.92000000	    -23.79282690	      0.47016624	     -1.60437268	     -0.17417988	      0.78040292	     -0.56574460	     63.10008664	      2.38323252	     11.11356484	     78.95035995	      1.37794373	     17.42940381	    -26.72328057	     -7.49997693	     70.03061858	     -4.82909370	      4.25666643	     79.96136838	      1.39558915	     13.40517152	    -14.44487912	     -7.49997693	     -5.46152973	     -4.56010364	     -4.41968112	    135.27634782	    -14.89210070	     27.26937100	     93.70617048	    107.96564952	    154.29365551	     -5.17221395	     49.87336470	     73.50173529	    106.10929226
      1.93000000	    -23.43203270	      0.24870654	     -1.94462402	     -0.16794721	      0.79552486	     -0.56491960	     60.53422269	      2.66176960	     11.01034555	     75.58837239	      1.31926597	     16.09744417	    -26.66164956	     -7.49997722	     67.67775667	     -5.23238281	      4.18407707	     77.25377551	      1.34833274	     11.85638354	    -14.36124816	     -7.49997722	     -4.14453034	     -4.40025995	     -3.47364112	    136.83036319	    -15.51059577	     28.24234378	     90.52145238	    107.67585343	    155.28516356	     -4.97370975	     50.55387310	     70.56845469	    105.81623991
      1.94000000	    -22.98827089	     -0.03025586	     -2.30618588	     -0.16186818	      0.81116485	     -0.56417771	     57.92979877	      2.93906443	     10.85558035	     72.12533531	      1.25882458	     14.19635538	    -26.79159869	     -7.49997752	     65.26508700	     -5.71818950	      4.09406162	     74.46951332	      1.29973820	      9.91619795	    -14.44613701	     -7.49997752	     -3.14126403	     -4.04857509	     -2.48430557	    138.84623100	    -15.74076764	     29.19233482	     86.90370191	    107.40208874	    156.44689023	     -4.87099765	     51.09485077	     67.48782360	    105.55122544
      1.95000000	    -22.63858146	     -0.45399231	     -2.60558955	     -0.15605225	      0.82727541	     -0.56380532	     55.42716314	      3.30632141	     10.72418597	     68.44132864	      1.19452653	      9.96436076	    -28.94955939	     -7.49997844	     62.98891214	     -6.17473161	      4.12323231	     71.50462047	      1.24799106	      6.78502906	    -16.04094605	     -7.49997844	     -2.22452217	     -3.38201552	     -1.09613211	    141.63506213	    -16.11649856	     31.28034490	     83.00877902	    107.35258804	    157.64786029	     -4.89231172	     51.72955176	     64.54034294	    105.50948496
      1.96000000	    -22.12308556	     -0.85081189	     -2.88943554	     -0.15003833	      0.84440422	     -0.56347330	     52.74705306	      3.55279641	     10.63718750	     64.70047935	      1.12923639	      6.98919382	    -29.03579656	     -7.49997904	     60.41062336	     -6.69353259	      4.04159858	     68.32171961	      1.19243896	      4.29467152	    -16.07084292	     -7.49997904	     -1.40465725	     -2.71487138	      0.07777821	    143.72397837	    -15.66626037	     32.38678876	     78.64337566	    107.28097992	    158.34881408	     -4.87604610	     52.08691328	     61.55998065	    105.39231449
      1.97000000	    -21.55424693	     -1.16283991	     -3.13176935	     -0.14387719	      0.86249526	     -0.56335265	     50.00247075	      3.63904822	     10.55710800	     60.75972600	      1.06045727	      2.62374602	    -29.71313313	     -7.49997999	     57.57392957	     -7.04767805	      3.89756990	     64.69481564	      1.12913754	      0.93985706	    -16.83466830	     -7.49997999	     -0.60749677	     -2.09888825	      1.43553249	    145.78776382	    -15.32949756	     34.30786408	     74.28314745	    107.51212305	    158.70947063	     -4.86043957	     52.52893125	     58.67936326	    105.58491918
      1.98000000	    -20.74983989	     -1.36926236	     -3.27584002	     -0.13749393	      0.88165397	     -0.56362226	     46.94476502	      3.44792229	     10.44316781	     56.62291011	      0.98825621	     -1.54204829	    -29.53883766	     -7.49998085	     54.32091028	     -7.26174993	      3.61140046	     60.72097591	      1.05978095	     -2.39644933	    -16.90783920	     -7.49998085	     -0.15698704	     -1.62208841	      2.60425198	    147.69959965	    -14.62209791	     35.80742852	     69.81651364	    107.66574576	    159.09316366	     -4.62422791	     53.07359507	     55.47362901	    105.81955196
      1.99000000	    -19.78853312	     -1.44642989	     -3.32969052	     -0.13073023	      0.90176726	     -0.56429161	     43.56800174	      2.94187889	     10.18518675	     52.06044825	      0.90862623	     -6.36409706	    -29.43520908	     -7.49998180	     50.73109213	     -7.36832170	      3.05799065	     56.39404083	      0.98426169	     -6.09176063	    -16.94784892	     -7.49998180	      0.14915008	     -1.28758248	      3.75792181	    149.44133522	    -13.87798864	     37.61723607	     65.36092217	    107.90449616	    159.37186141	     -4.27987287	     54.08596724	     52.05451150	    106.05102394
